<?xml version="1.0" encoding="UTF-8" standalone="no"?>
<!-- Created with Inkscape (http://www.inkscape.org/) -->

<svg
   xmlns:dc="http://purl.org/dc/elements/1.1/"
   xmlns:cc="http://creativecommons.org/ns#"
   xmlns:rdf="http://www.w3.org/1999/02/22-rdf-syntax-ns#"
   xmlns:svg="http://www.w3.org/2000/svg"
   xmlns="http://www.w3.org/2000/svg"
   xmlns:sodipodi="http://sodipodi.sourceforge.net/DTD/sodipodi-0.dtd"
   xmlns:inkscape="http://www.inkscape.org/namespaces/inkscape"
   version="1.1"
   width="800"
   height="600"
   id="svg2"
   xml:space="preserve"
   inkscape:version="0.47 r22583"
   sodipodi:docname="rst2pdf_background.png"
   inkscape:export-filename="/home/emuller/theway-svn/talks/talkSPANEU10_Dresden/rst2pdf_bg.png"
   inkscape:export-xdpi="90"
   inkscape:export-ydpi="90"><metadata
     id="metadata547"><rdf:RDF><cc:Work
         rdf:about=""><dc:format>image/svg+xml</dc:format><dc:type
           rdf:resource="http://purl.org/dc/dcmitype/StillImage" /><dc:title></dc:title></cc:Work></rdf:RDF></metadata><sodipodi:namedview
     pagecolor="#ffffff"
     bordercolor="#666666"
     borderopacity="1"
     objecttolerance="10"
     gridtolerance="10"
     guidetolerance="10"
     inkscape:pageopacity="0"
     inkscape:pageshadow="2"
     inkscape:window-width="1468"
     inkscape:window-height="952"
     id="namedview545"
     showgrid="false"
     inkscape:zoom="0.87256052"
     inkscape:cx="495"
     inkscape:cy="382.5"
     inkscape:window-x="0"
     inkscape:window-y="0"
     inkscape:window-maximized="0"
     inkscape:current-layer="svg2" /><defs
     id="defs6"><inkscape:perspective
       sodipodi:type="inkscape:persp3d"
       inkscape:vp_x="0 : 382.5 : 1"
       inkscape:vp_y="0 : 1000 : 0"
       inkscape:vp_z="990 : 382.5 : 1"
       inkscape:persp3d-origin="495 : 255 : 1"
       id="perspective549" /><clipPath
       id="clipPath14"><path
         d="M 0,0 612,0 612,792 0,792 0,0 z"
         id="path16" /></clipPath><clipPath
       id="clipPath24"><path
         d="m 453.969,7739.77 0,-7432.36 -34.934,0 0,7432.36 34.934,0 z"
         id="path26" /></clipPath><clipPath
       id="clipPath200"><path
         d="m 1670.93,262.301 0,7436.909 1275.87,0 0,-7436.909 -1275.87,0 z"
         id="path202" /></clipPath><clipPath
       id="clipPath310"><path
         d="m 3364.41,336.258 0,7303.792 1179.73,0 0,-7303.792 -1179.73,0 z"
         id="path312" /></clipPath></defs><g
     id="g20"
     transform="matrix(0,0.10202455,0.10202455,0,-12.172635,14.557726)"><g
       clip-path="url(#clipPath24)"
       id="g22"><path
         d="m 419.035,307.41 34.9336,0 0,7432.36 -34.9336,0 0,-7432.36 z"
         id="path28"
         style="fill:#d4f8ff;fill-opacity:1;fill-rule:evenodd;stroke:none" /><path
         d="m 419.035,307.41 34.9336,0 0,7432.36 -34.9336,0 0,-7432.36 z"
         id="path30"
         style="fill:#d4f8ff;fill-opacity:1;fill-rule:evenodd;stroke:none" /><path
         d="m 419.035,456.059 34.9336,0 0,7283.71 -34.9336,0 0,-7283.71 z"
         id="path32"
         style="fill:#d0f4ff;fill-opacity:1;fill-rule:evenodd;stroke:none" /><path
         d="m 419.035,604.703 34.9336,0 0,7135.07 -34.9336,0 0,-7135.07 z"
         id="path34"
         style="fill:#ccf1ff;fill-opacity:1;fill-rule:evenodd;stroke:none" /><path
         d="m 419.035,753.352 34.9336,0 0,6986.42 -34.9336,0 0,-6986.42 z"
         id="path36"
         style="fill:#c7eeff;fill-opacity:1;fill-rule:evenodd;stroke:none" /><path
         d="m 419.035,902 34.9336,0 0,6837.77 -34.9336,0 0,-6837.77 z"
         id="path38"
         style="fill:#c3ebff;fill-opacity:1;fill-rule:evenodd;stroke:none" /><path
         d="m 419.035,1050.64 34.9336,0 0,6689.12 -34.9336,0 0,-6689.12 z"
         id="path40"
         style="fill:#bee8ff;fill-opacity:1;fill-rule:evenodd;stroke:none" /><path
         d="m 419.035,1199.29 34.9336,0 0,6540.48 -34.9336,0 0,-6540.48 z"
         id="path42"
         style="fill:#bae5ff;fill-opacity:1;fill-rule:evenodd;stroke:none" /><path
         d="m 419.035,1347.94 34.9336,0 0,6391.83 -34.9336,0 0,-6391.83 z"
         id="path44"
         style="fill:#b6e2ff;fill-opacity:1;fill-rule:evenodd;stroke:none" /><path
         d="m 419.035,1496.59 34.9336,0 0,6243.18 -34.9336,0 0,-6243.18 z"
         id="path46"
         style="fill:#b1dfff;fill-opacity:1;fill-rule:evenodd;stroke:none" /><path
         d="m 419.035,1645.23 34.9336,0 0,6094.54 -34.9336,0 0,-6094.54 z"
         id="path48"
         style="fill:#addcff;fill-opacity:1;fill-rule:evenodd;stroke:none" /><path
         d="m 419.035,1793.88 34.9336,0 0,5945.89 -34.9336,0 0,-5945.89 z"
         id="path50"
         style="fill:#a9d9ff;fill-opacity:1;fill-rule:evenodd;stroke:none" /><path
         d="m 419.035,1942.53 34.9336,0 0,5797.24 -34.9336,0 0,-5797.24 z"
         id="path52"
         style="fill:#a4d6ff;fill-opacity:1;fill-rule:evenodd;stroke:none" /><path
         d="m 419.035,2091.18 34.9336,0 0,5648.59 -34.9336,0 0,-5648.59 z"
         id="path54"
         style="fill:#a0d2ff;fill-opacity:1;fill-rule:evenodd;stroke:none" /><path
         d="m 419.035,2239.82 34.9336,0 0,5499.95 -34.9336,0 0,-5499.95 z"
         id="path56"
         style="fill:#9ccfff;fill-opacity:1;fill-rule:evenodd;stroke:none" /><path
         d="m 419.035,2388.47 34.9336,0 0,5351.3 -34.9336,0 0,-5351.3 z"
         id="path58"
         style="fill:#97ccff;fill-opacity:1;fill-rule:evenodd;stroke:none" /><path
         d="m 419.035,2537.12 34.9336,0 0,5202.65 -34.9336,0 0,-5202.65 z"
         id="path60"
         style="fill:#93c9ff;fill-opacity:1;fill-rule:evenodd;stroke:none" /><path
         d="m 419.035,2685.77 34.9336,0 0,5054 -34.9336,0 0,-5054 z"
         id="path62"
         style="fill:#8fc6ff;fill-opacity:1;fill-rule:evenodd;stroke:none" /><path
         d="m 419.035,2834.41 34.9336,0 0,4905.36 -34.9336,0 0,-4905.36 z"
         id="path64"
         style="fill:#8ac3ff;fill-opacity:1;fill-rule:evenodd;stroke:none" /><path
         d="m 419.035,2983.06 34.9336,0 0,4756.71 -34.9336,0 0,-4756.71 z"
         id="path66"
         style="fill:#86c0ff;fill-opacity:1;fill-rule:evenodd;stroke:none" /><path
         d="m 419.035,3131.71 34.9336,0 0,4608.06 -34.9336,0 0,-4608.06 z"
         id="path68"
         style="fill:#82bdff;fill-opacity:1;fill-rule:evenodd;stroke:none" /><path
         d="m 419.035,3280.36 34.9336,0 0,4459.41 -34.9336,0 0,-4459.41 z"
         id="path70"
         style="fill:#7dbaff;fill-opacity:1;fill-rule:evenodd;stroke:none" /><path
         d="m 419.035,3429 34.9336,0 0,4310.77 -34.9336,0 0,-4310.77 z"
         id="path72"
         style="fill:#79b6ff;fill-opacity:1;fill-rule:evenodd;stroke:none" /><path
         d="m 419.035,3577.65 34.9336,0 0,4162.12 -34.9336,0 0,-4162.12 z"
         id="path74"
         style="fill:#75b3ff;fill-opacity:1;fill-rule:evenodd;stroke:none" /><path
         d="m 419.035,3726.3 34.9336,0 0,4013.47 -34.9336,0 0,-4013.47 z"
         id="path76"
         style="fill:#70b0ff;fill-opacity:1;fill-rule:evenodd;stroke:none" /><path
         d="m 419.035,3874.94 34.9336,0 0,3864.83 -34.9336,0 0,-3864.83 z"
         id="path78"
         style="fill:#6cadff;fill-opacity:1;fill-rule:evenodd;stroke:none" /><path
         d="m 419.035,4023.59 34.9336,0 0,3716.18 -34.9336,0 0,-3716.18 z"
         id="path80"
         style="fill:#68aaff;fill-opacity:1;fill-rule:evenodd;stroke:none" /><path
         d="m 419.035,4172.24 34.9336,0 0,3567.53 -34.9336,0 0,-3567.53 z"
         id="path82"
         style="fill:#64a7ff;fill-opacity:1;fill-rule:evenodd;stroke:none" /><path
         d="m 419.035,4320.88 34.9336,0 0,3418.89 -34.9336,0 0,-3418.89 z"
         id="path84"
         style="fill:#5fa4ff;fill-opacity:1;fill-rule:evenodd;stroke:none" /><path
         d="m 419.035,4469.53 34.9336,0 0,3270.24 -34.9336,0 0,-3270.24 z"
         id="path86"
         style="fill:#5ba1ff;fill-opacity:1;fill-rule:evenodd;stroke:none" /><path
         d="m 419.035,4618.18 34.9336,0 0,3121.59 -34.9336,0 0,-3121.59 z"
         id="path88"
         style="fill:#579dff;fill-opacity:1;fill-rule:evenodd;stroke:none" /><path
         d="m 419.035,4766.82 34.9336,0 0,2972.95 -34.9336,0 0,-2972.95 z"
         id="path90"
         style="fill:#529aff;fill-opacity:1;fill-rule:evenodd;stroke:none" /><path
         d="m 419.035,4915.47 34.9336,0 0,2824.3 -34.9336,0 0,-2824.3 z"
         id="path92"
         style="fill:#4e97ff;fill-opacity:1;fill-rule:evenodd;stroke:none" /><path
         d="m 419.035,5064.12 34.9336,0 0,2675.65 -34.9336,0 0,-2675.65 z"
         id="path94"
         style="fill:#4a94ff;fill-opacity:1;fill-rule:evenodd;stroke:none" /><path
         d="m 419.035,5212.77 34.9336,0 0,2527 -34.9336,0 0,-2527 z"
         id="path96"
         style="fill:#4591ff;fill-opacity:1;fill-rule:evenodd;stroke:none" /><path
         d="m 419.035,5361.41 34.9336,0 0,2378.36 -34.9336,0 0,-2378.36 z"
         id="path98"
         style="fill:#418eff;fill-opacity:1;fill-rule:evenodd;stroke:none" /><path
         d="m 419.035,5510.06 34.9336,0 0,2229.71 -34.9336,0 0,-2229.71 z"
         id="path100"
         style="fill:#3d8bff;fill-opacity:1;fill-rule:evenodd;stroke:none" /><path
         d="m 419.035,5658.71 34.9336,0 0,2081.06 -34.9336,0 0,-2081.06 z"
         id="path102"
         style="fill:#3888ff;fill-opacity:1;fill-rule:evenodd;stroke:none" /><path
         d="m 419.035,5807.36 34.9336,0 0,1932.41 -34.9336,0 0,-1932.41 z"
         id="path104"
         style="fill:#3485ff;fill-opacity:1;fill-rule:evenodd;stroke:none" /><path
         d="m 419.035,5956 34.9336,0 0,1783.77 -34.9336,0 0,-1783.77 z"
         id="path106"
         style="fill:#3082ff;fill-opacity:1;fill-rule:evenodd;stroke:none" /><path
         d="m 419.035,6104.65 34.9336,0 0,1635.12 -34.9336,0 0,-1635.12 z"
         id="path108"
         style="fill:#2b7fff;fill-opacity:1;fill-rule:evenodd;stroke:none" /><path
         d="m 419.035,6253.3 34.9336,0 0,1486.47 -34.9336,0 0,-1486.47 z"
         id="path110"
         style="fill:#277cff;fill-opacity:1;fill-rule:evenodd;stroke:none" /><path
         d="m 419.035,6401.95 34.9336,0 0,1337.82 -34.9336,0 0,-1337.82 z"
         id="path112"
         style="fill:#2379ff;fill-opacity:1;fill-rule:evenodd;stroke:none" /><path
         d="m 419.035,6550.59 34.9336,0 0,1189.18 -34.9336,0 0,-1189.18 z"
         id="path114"
         style="fill:#1e76ff;fill-opacity:1;fill-rule:evenodd;stroke:none" /><path
         d="m 419.035,6699.24 34.9336,0 0,1040.53 -34.9336,0 0,-1040.53 z"
         id="path116"
         style="fill:#1a72ff;fill-opacity:1;fill-rule:evenodd;stroke:none" /><path
         d="m 419.035,6847.89 34.9336,0 0,891.883 -34.9336,0 0,-891.883 z"
         id="path118"
         style="fill:#166fff;fill-opacity:1;fill-rule:evenodd;stroke:none" /><path
         d="m 419.035,6996.53 34.9336,0 0,743.238 -34.9336,0 0,-743.238 z"
         id="path120"
         style="fill:#116cff;fill-opacity:1;fill-rule:evenodd;stroke:none" /><path
         d="m 419.035,7145.18 34.9336,0 0,594.59 -34.9336,0 0,-594.59 z"
         id="path122"
         style="fill:#0d69ff;fill-opacity:1;fill-rule:evenodd;stroke:none" /><path
         d="m 419.035,7293.83 34.9336,0 0,445.941 -34.9336,0 0,-445.941 z"
         id="path124"
         style="fill:#0966ff;fill-opacity:1;fill-rule:evenodd;stroke:none" /><path
         d="m 419.035,7442.48 34.9336,0 0,297.293 -34.9336,0 0,-297.293 z"
         id="path126"
         style="fill:#0463ff;fill-opacity:1;fill-rule:evenodd;stroke:none" /><path
         d="m 419.035,7591.12 34.9336,0 0,148.648 -34.9336,0 0,-148.648 z"
         id="path128"
         style="fill:#0060ff;fill-opacity:1;fill-rule:evenodd;stroke:none" /></g></g></svg>